v -0.05 -0.015 0.025
v -0.05 0.015 0.025
v -0.05 -0.015 -0.025
v -0.05 0.015 -0.025
v 0.05 -0.015 -0.025
v 0.05 0.015 -0.025
v 0.009951847 -0.015 0.0009801714
v 0.05 -0.015 0.025
v 0.009807853 -0.015 0.0019509032
v 0.01 -0.015 0
v 0.009569404 -0.015 0.0029028468
v 0.009238795 -0.015 0.0038268345
v 0.008819213 -0.015 0.0047139674
v 0.008314696 -0.015 0.0055557024
v 0.0077301045 -0.015 0.006343933
v 0.0070710676 -0.015 0.0070710676
v 0.006343933 -0.015 0.0077301045
v 0.0055557024 -0.015 0.008314696
v 0.0047139674 -0.015 0.008819213
v 0.0038268345 -0.015 0.009238795
v 0.0029028468 -0.015 0.009569404
v 0.0019509032 -0.015 0.009807853
v 0.0009801714 -0.015 0.009951847
v 0.0000000000000000006123234 -0.015 0.01
v -0.0009801714 -0.015 0.009951847
v -0.0029028468 -0.015 0.009569404
v -0.0038268345 -0.015 0.009238795
v -0.0019509032 -0.015 0.009807853
v -0.0047139674 -0.015 0.008819213
v -0.0055557024 -0.015 0.008314696
v -0.006343933 -0.015 0.0077301045
v -0.0070710676 -0.015 0.0070710676
v -0.0077301045 -0.015 0.006343933
v -0.008314696 -0.015 0.0055557024
v -0.008819213 -0.015 0.0047139674
v -0.009238795 -0.015 0.0038268345
v -0.009569404 -0.015 0.0029028468
v -0.009807853 -0.015 0.0019509032
v -0.009951847 -0.015 0.0009801714
v -0.01 -0.015 0.0000000000000000012246468
v -0.009951847 -0.015 -0.0009801714
v -0.009807853 -0.015 -0.0019509032
v -0.009569404 -0.015 -0.0029028468
v -0.009238795 -0.015 -0.0038268345
v -0.008819213 -0.015 -0.0047139674
v -0.008314696 -0.015 -0.0055557024
v -0.0077301045 -0.015 -0.006343933
v -0.006343933 -0.015 -0.0077301045
v -0.0055557024 -0.015 -0.008314696
v -0.0070710676 -0.015 -0.0070710676
v -0.0047139674 -0.015 -0.008819213
v -0.0038268345 -0.015 -0.009238795
v -0.0029028468 -0.015 -0.009569404
v -0.0019509032 -0.015 -0.009807853
v -0.0009801714 -0.015 -0.009951847
v -0.00000000000000000183697 -0.015 -0.01
v 0.0009801714 -0.015 -0.009951847
v 0.0029028468 -0.015 -0.009569404
v 0.0038268345 -0.015 -0.009238795
v 0.0019509032 -0.015 -0.009807853
v 0.0047139674 -0.015 -0.008819213
v 0.0055557024 -0.015 -0.008314696
v 0.006343933 -0.015 -0.0077301045
v 0.0070710676 -0.015 -0.0070710676
v 0.0077301045 -0.015 -0.006343933
v 0.008314696 -0.015 -0.0055557024
v 0.008819213 -0.015 -0.0047139674
v 0.009238795 -0.015 -0.0038268345
v 0.009569404 -0.015 -0.0029028468
v 0.009807853 -0.015 -0.0019509032
v 0.009951847 -0.015 -0.0009801714
v 0.05 0.015 0.025
v 0.009951847 0.015 0.0009801714
v 0.009807853 0.015 0.0019509032
v 0.01 0.015 0
v 0.009569404 0.015 0.0029028468
v 0.009238795 0.015 0.0038268345
v 0.008819213 0.015 0.0047139674
v 0.008314696 0.015 0.0055557024
v 0.0077301045 0.015 0.006343933
v 0.0070710676 0.015 0.0070710676
v 0.006343933 0.015 0.0077301045
v 0.0055557024 0.015 0.008314696
v 0.0047139674 0.015 0.008819213
v 0.0038268345 0.015 0.009238795
v 0.0029028468 0.015 0.009569404
v 0.0019509032 0.015 0.009807853
v 0.0009801714 0.015 0.009951847
v 0.0000000000000000006123234 0.015 0.01
v -0.0009801714 0.015 0.009951847
v -0.0029028468 0.015 0.009569404
v -0.0038268345 0.015 0.009238795
v -0.0019509032 0.015 0.009807853
v -0.0047139674 0.015 0.008819213
v -0.0055557024 0.015 0.008314696
v -0.006343933 0.015 0.0077301045
v -0.0070710676 0.015 0.0070710676
v -0.0077301045 0.015 0.006343933
v -0.008314696 0.015 0.0055557024
v -0.008819213 0.015 0.0047139674
v -0.009238795 0.015 0.0038268345
v -0.009569404 0.015 0.0029028468
v -0.009807853 0.015 0.0019509032
v -0.009951847 0.015 0.0009801714
v -0.01 0.015 0.0000000000000000012246468
v -0.009951847 0.015 -0.0009801714
v -0.009807853 0.015 -0.0019509032
v -0.009569404 0.015 -0.0029028468
v -0.009238795 0.015 -0.0038268345
v -0.008819213 0.015 -0.0047139674
v -0.008314696 0.015 -0.0055557024
v -0.0077301045 0.015 -0.006343933
v -0.006343933 0.015 -0.0077301045
v -0.0055557024 0.015 -0.008314696
v -0.0070710676 0.015 -0.0070710676
v -0.0047139674 0.015 -0.008819213
v -0.0038268345 0.015 -0.009238795
v -0.0029028468 0.015 -0.009569404
v -0.0019509032 0.015 -0.009807853
v -0.0009801714 0.015 -0.009951847
v -0.00000000000000000183697 0.015 -0.01
v 0.0009801714 0.015 -0.009951847
v 0.0029028468 0.015 -0.009569404
v 0.0038268345 0.015 -0.009238795
v 0.0019509032 0.015 -0.009807853
v 0.0047139674 0.015 -0.008819213
v 0.0055557024 0.015 -0.008314696
v 0.006343933 0.015 -0.0077301045
v 0.0070710676 0.015 -0.0070710676
v 0.0077301045 0.015 -0.006343933
v 0.008314696 0.015 -0.0055557024
v 0.008819213 0.015 -0.0047139674
v 0.009238795 0.015 -0.0038268345
v 0.009569404 0.015 -0.0029028468
v 0.009807853 0.015 -0.0019509032
v 0.009951847 0.015 -0.0009801714
vt 30 -50
vt 0 -50
vt 30 0
vt 0 0
vt 30 100
vt 0 100
vt 59.951847 25.980171
vt 100 50
vt 59.807854 26.950903
vt 60 25
vt 59.569405 27.902847
vt 59.238796 28.826834
vt 58.819214 29.713968
vt 58.314697 30.555702
vt 57.730106 31.343933
vt 57.071068 32.071068
vt 56.343933 32.730106
vt 55.555702 33.314697
vt 54.713966 33.819214
vt 53.826836 34.238796
vt 52.902847 34.569405
vt 51.950905 34.807854
vt 50.98017 34.951847
vt 50 35
vt 0 50
vt 49.01983 34.951847
vt 47.097153 34.569405
vt 46.173164 34.238796
vt 48.049095 34.807854
vt 45.286034 33.819214
vt 44.444298 33.314697
vt 43.656067 32.730106
vt 42.928932 32.071068
vt 42.269894 31.343933
vt 41.685303 30.555702
vt 41.180786 29.713968
vt 40.761204 28.826834
vt 40.430595 27.902847
vt 40.192146 26.950903
vt 40.048153 25.980171
vt 40 25
vt 40.048153 24.019829
vt 40.192146 23.049097
vt 40.430595 22.097153
vt 40.761204 21.173166
vt 41.180786 20.286032
vt 41.685303 19.444298
vt 42.269894 18.656067
vt 43.656067 17.269896
vt 44.444298 16.685305
vt 42.928932 17.928932
vt 45.286034 16.180788
vt 46.173164 15.761205
vt 47.097153 15.430596
vt 48.049095 15.192147
vt 49.01983 15.048153
vt 50 15
vt 100 0
vt 50.98017 15.048153
vt 52.902847 15.430596
vt 53.826836 15.761205
vt 51.950905 15.192147
vt 54.713966 16.180788
vt 55.555702 16.685305
vt 56.343933 17.269896
vt 57.071068 17.928932
vt 57.730106 18.656067
vt 58.314697 19.444298
vt 58.819214 20.286032
vt 59.238796 21.173166
vt 59.569405 22.097153
vt 59.807854 23.049097
vt 59.951847 24.019829
vt 0.09817477 0
vt 0.19634955 0
vt 0.09817477 -30
vt 0.2945243 0
vt 0.19634955 -30
vt 0.2945243 -30
vt 0.3926991 0
vt 0.3926991 -30
vt 0.49087384 0
vt 0.5890486 0
vt 0.49087384 -30
vt 0.5890486 -30
vt 0.6872234 -30
vt 0.6872234 0
vt 0.7853982 0
vt 0.7853982 -30
vt 0.88357294 0
vt 0.88357294 -30
vt 0.9817477 0
vt 0.9817477 -30
vt 1.0799224 0
vt 1.1780972 0
vt 1.0799224 -30
vt 1.1780972 -30
vt 1.276272 0
vt 1.276272 -30
vt 1.3744467 0
vt 1.4726216 0
vt 1.3744467 -30
vt 1.4726216 -30
vt 1.5707964 -30
vt 1.5707964 0
vt 1.6689711 0
vt 1.6689711 -30
vt 1.7671459 0
vt 1.7671459 -30
vt 1.8653207 0
vt 1.8653207 -30
vt 1.9634954 0
vt 2.06167 0
vt 1.9634954 -30
vt 2.06167 -30
vt 2.1598449 0
vt 2.1598449 -30
vt 2.2580197 0
vt 2.3561945 0
vt 2.2580197 -30
vt 2.3561945 -30
vt 2.4543693 -30
vt 2.4543693 0
vt 2.552544 0
vt 2.552544 -30
vt 2.6507187 0
vt 2.6507187 -30
vt 2.7488935 0
vt 2.7488935 -30
vt 2.8470683 0
vt 2.9452431 0
vt 2.8470683 -30
vt 2.9452431 -30
vt 3.043418 0
vt 3.043418 -30
vt 3.1415927 0
vt 3.2397673 0
vt 3.1415927 -30
vt 3.2397673 -30
vt 3.3379421 -30
vt 3.3379421 0
vt 3.436117 0
vt 3.436117 -30
vt 3.5342917 0
vt 3.5342917 -30
vt 3.6324666 0
vt 3.6324666 -30
vt 3.7306414 0
vt 3.7306414 -30
vt 3.828816 0
vt 3.9269907 0
vt 3.828816 -30
vt 3.9269907 -30
vt 4.0251656 0
vt 4.0251656 -30
vt 4.12334 0
vt 4.221515 0
vt 4.12334 -30
vt 4.221515 -30
vt 4.3196898 -30
vt 4.3196898 0
vt 4.417865 0
vt 4.417865 -30
vt 4.5160394 0
vt 4.5160394 -30
vt 4.6142144 0
vt 4.6142144 -30
vt 5.006913 -30
vt 5.006913 0
vt 5.105088 0
vt 5.595962 -30
vt 5.6941366 0
vt 5.6941366 -30
vt 5.7923117 0
vt 6.1850104 -30
vt 0 -30
vt 6.1850104 0
vt 6.086836 -30
vt 6.086836 0
vt 5.988661 -30
vt 5.988661 0
vt 5.8904862 -30
vt 5.8904862 0
vt 5.7923117 -30
vt 5.595962 0
vt 5.497787 -30
vt 5.497787 0
vt 5.3996124 -30
vt 5.3996124 0
vt 5.3014374 -30
vt 5.3014374 0
vt 5.203263 -30
vt 5.203263 0
vt 5.105088 -30
vt 4.9087386 -30
vt 4.9087386 0
vt 4.8105636 -30
vt 4.8105636 0
vt 4.712389 -30
vt 4.712389 0
vn -1 0 -0
vn -0 0 -1
vn 0 -1 0
vn 0 -0 1
vn -0 1 -0
vn 1 -0 0
vn -0.9951847 0 -0.09801714
vn -0.98078525 0 -0.19509032
vn -0.95694035 0 -0.29028466
vn -0.9238795 0 -0.38268343
vn -0.8819213 0 -0.47139674
vn -0.8314696 0 -0.55557024
vn -0.77301043 0 -0.6343933
vn -0.70710677 0 -0.70710677
vn -0.6343933 0 -0.77301043
vn -0.55557024 0 -0.8314696
vn -0.47139674 0 -0.8819213
vn -0.38268343 0 -0.9238795
vn -0.29028466 0 -0.95694035
vn -0.19509032 0 -0.98078525
vn -0.09801714 0 -0.9951847
vn -0.00000000000000006123234 0 -1
vn 0.09801714 0 -0.9951847
vn 0.19509032 0 -0.98078525
vn 0.29028466 0 -0.95694035
vn 0.38268343 0 -0.9238795
vn 0.47139674 0 -0.8819213
vn 0.55557024 0 -0.8314696
vn 0.6343933 0 -0.77301043
vn 0.70710677 0 -0.70710677
vn 0.77301043 0 -0.6343933
vn 0.8314696 0 -0.55557024
vn 0.8819213 0 -0.47139674
vn 0.9238795 0 -0.38268343
vn 0.95694035 0 -0.29028466
vn 0.98078525 0 -0.19509032
vn 0.9951847 0 -0.09801714
vn 1 0 -0.00000000000000012246469
vn 0.9951847 0 0.09801714
vn 0.98078525 0 0.19509032
vn 0.95694035 0 0.29028466
vn 0.9238795 0 0.38268343
vn 0.8819213 0 0.47139674
vn 0.8314696 0 0.55557024
vn 0.77301043 0 0.6343933
vn 0.70710677 0 0.70710677
vn 0.6343933 0 0.77301043
vn 0.55557024 0 0.8314696
vn 0.47139674 0 0.8819213
vn 0.38268343 0 0.9238795
vn 0.29028466 0 0.95694035
vn 0.19509032 0 0.98078525
vn 0.09801714 0 0.9951847
vn -0.29028466 0 0.95694035
vn -0.38268343 0 0.9238795
vn -0.77301043 0 0.6343933
vn -0.8314696 0 0.55557024
vn -0.8819213 0 0.47139674
vn -0.9951847 0 0.09801714
vn -0.98078525 0 0.19509032
vn -0.95694035 0 0.29028466
vn -0.9238795 0 0.38268343
vn -0.70710677 0 0.70710677
vn -0.6343933 0 0.77301043
vn -0.55557024 0 0.8314696
vn -0.47139674 0 0.8819213
vn -0.19509032 0 0.98078525
vn -0.09801714 0 0.9951847
vn 0.00000000000000018369701 0 1
o Unnamed-0
f 1/1/1 2/2/1 3/3/1
f 2/2/1 4/4/1 3/3/1
f 5/5/2 4/4/2 6/6/2
f 3/3/2 4/4/2 5/5/2
f 7/7/3 8/8/3 9/9/3
f 7/7/3 10/10/3 8/8/3
f 9/9/3 8/8/3 11/11/3
f 11/11/3 8/8/3 12/12/3
f 12/12/3 8/8/3 13/13/3
f 13/13/3 8/8/3 14/14/3
f 14/14/3 8/8/3 15/15/3
f 15/15/3 8/8/3 16/16/3
f 16/16/3 8/8/3 17/17/3
f 17/17/3 8/8/3 18/18/3
f 18/18/3 8/8/3 19/19/3
f 19/19/3 8/8/3 20/20/3
f 20/20/3 8/8/3 21/21/3
f 22/22/3 21/21/3 8/8/3
f 23/23/3 22/22/3 8/8/3
f 24/24/3 23/23/3 8/8/3
f 1/25/3 24/24/3 8/8/3
f 1/25/3 25/26/3 24/24/3
f 26/27/3 1/25/3 27/28/3
f 26/27/3 28/29/3 1/25/3
f 27/28/3 1/25/3 29/30/3
f 29/30/3 1/25/3 30/31/3
f 30/31/3 1/25/3 31/32/3
f 31/32/3 1/25/3 32/33/3
f 32/33/3 1/25/3 33/34/3
f 33/34/3 1/25/3 34/35/3
f 34/35/3 1/25/3 35/36/3
f 35/36/3 1/25/3 36/37/3
f 36/37/3 1/25/3 37/38/3
f 37/38/3 1/25/3 38/39/3
f 38/39/3 1/25/3 39/40/3
f 1/25/3 28/29/3 25/26/3
f 40/41/3 39/40/3 1/25/3
f 3/4/3 40/41/3 1/25/3
f 3/4/3 41/42/3 40/41/3
f 3/4/3 42/43/3 41/42/3
f 3/4/3 43/44/3 42/43/3
f 3/4/3 44/45/3 43/44/3
f 3/4/3 45/46/3 44/45/3
f 3/4/3 46/47/3 45/46/3
f 3/4/3 47/48/3 46/47/3
f 48/49/3 3/4/3 49/50/3
f 48/49/3 50/51/3 3/4/3
f 49/50/3 3/4/3 51/52/3
f 51/52/3 3/4/3 52/53/3
f 52/53/3 3/4/3 53/54/3
f 53/54/3 3/4/3 54/55/3
f 55/56/3 54/55/3 3/4/3
f 56/57/3 55/56/3 3/4/3
f 5/58/3 56/57/3 3/4/3
f 5/58/3 57/59/3 56/57/3
f 58/60/3 5/58/3 59/61/3
f 58/60/3 60/62/3 5/58/3
f 59/61/3 5/58/3 61/63/3
f 61/63/3 5/58/3 62/64/3
f 62/64/3 5/58/3 63/65/3
f 63/65/3 5/58/3 64/66/3
f 64/66/3 5/58/3 65/67/3
f 65/67/3 5/58/3 66/68/3
f 66/68/3 5/58/3 67/69/3
f 67/69/3 5/58/3 68/70/3
f 68/70/3 5/58/3 69/71/3
f 69/71/3 5/58/3 70/72/3
f 70/72/3 5/58/3 71/73/3
f 3/4/3 50/51/3 47/48/3
f 10/10/3 5/58/3 8/8/3
f 10/10/3 71/73/3 5/58/3
f 5/58/3 60/62/3 57/59/3
f 8/5/4 72/6/4 2/4/4
f 1/3/4 8/5/4 2/4/4
f 73/7/5 74/9/5 72/8/5
f 73/7/5 72/8/5 75/10/5
f 74/9/5 76/11/5 72/8/5
f 76/11/5 77/12/5 72/8/5
f 77/12/5 78/13/5 72/8/5
f 78/13/5 79/14/5 72/8/5
f 79/14/5 80/15/5 72/8/5
f 80/15/5 81/16/5 72/8/5
f 81/16/5 82/17/5 72/8/5
f 82/17/5 83/18/5 72/8/5
f 83/18/5 84/19/5 72/8/5
f 84/19/5 85/20/5 72/8/5
f 85/20/5 86/21/5 72/8/5
f 87/22/5 72/8/5 86/21/5
f 88/23/5 72/8/5 87/22/5
f 89/24/5 72/8/5 88/23/5
f 2/25/5 72/8/5 89/24/5
f 2/25/5 89/24/5 90/26/5
f 91/27/5 92/28/5 2/25/5
f 91/27/5 2/25/5 93/29/5
f 92/28/5 94/30/5 2/25/5
f 94/30/5 95/31/5 2/25/5
f 95/31/5 96/32/5 2/25/5
f 96/32/5 97/33/5 2/25/5
f 97/33/5 98/34/5 2/25/5
f 98/34/5 99/35/5 2/25/5
f 99/35/5 100/36/5 2/25/5
f 100/36/5 101/37/5 2/25/5
f 101/37/5 102/38/5 2/25/5
f 102/38/5 103/39/5 2/25/5
f 103/39/5 104/40/5 2/25/5
f 2/25/5 90/26/5 93/29/5
f 105/41/5 2/25/5 104/40/5
f 4/4/5 2/25/5 105/41/5
f 4/4/5 105/41/5 106/42/5
f 4/4/5 106/42/5 107/43/5
f 4/4/5 107/43/5 108/44/5
f 4/4/5 108/44/5 109/45/5
f 4/4/5 109/45/5 110/46/5
f 4/4/5 110/46/5 111/47/5
f 4/4/5 111/47/5 112/48/5
f 113/49/5 114/50/5 4/4/5
f 113/49/5 4/4/5 115/51/5
f 114/50/5 116/52/5 4/4/5
f 116/52/5 117/53/5 4/4/5
f 117/53/5 118/54/5 4/4/5
f 118/54/5 119/55/5 4/4/5
f 120/56/5 4/4/5 119/55/5
f 121/57/5 4/4/5 120/56/5
f 6/58/5 4/4/5 121/57/5
f 6/58/5 121/57/5 122/59/5
f 123/60/5 124/61/5 6/58/5
f 123/60/5 6/58/5 125/62/5
f 124/61/5 126/63/5 6/58/5
f 126/63/5 127/64/5 6/58/5
f 127/64/5 128/65/5 6/58/5
f 128/65/5 129/66/5 6/58/5
f 129/66/5 130/67/5 6/58/5
f 130/67/5 131/68/5 6/58/5
f 131/68/5 132/69/5 6/58/5
f 132/69/5 133/70/5 6/58/5
f 133/70/5 134/71/5 6/58/5
f 134/71/5 135/72/5 6/58/5
f 135/72/5 136/73/5 6/58/5
f 4/4/5 112/48/5 115/51/5
f 75/10/5 72/8/5 6/58/5
f 75/10/5 6/58/5 136/73/5
f 6/58/5 122/59/5 125/62/5
f 8/1/6 5/3/6 72/2/6
f 72/2/6 5/3/6 6/4/6
f 7/74/7 9/75/8 73/76/7
f 9/75/8 11/77/9 74/78/8
f 11/77/9 76/79/9 74/78/8
f 12/80/10 77/81/10 76/79/9
f 13/82/11 77/81/10 12/80/10
f 14/83/12 78/84/11 13/82/11
f 79/85/12 78/84/11 14/83/12
f 80/86/13 79/85/12 15/87/13
f 80/86/13 15/87/13 16/88/14
f 81/89/14 16/88/14 17/90/15
f 81/89/14 17/90/15 82/91/15
f 82/91/15 18/92/16 83/93/16
f 18/92/16 19/94/17 83/93/16
f 19/94/17 20/95/18 84/96/17
f 20/95/18 85/97/18 84/96/17
f 21/98/19 86/99/19 85/97/18
f 22/100/20 86/99/19 21/98/19
f 23/101/21 87/102/20 22/100/20
f 88/103/21 87/102/20 23/101/21
f 89/104/22 88/103/21 24/105/22
f 89/104/22 24/105/22 25/106/23
f 90/107/23 25/106/23 28/108/24
f 90/107/23 28/108/24 93/109/24
f 93/109/24 26/110/25 91/111/25
f 26/110/25 27/112/26 91/111/25
f 27/112/26 29/113/27 92/114/26
f 29/113/27 94/115/27 92/114/26
f 30/116/28 95/117/28 94/115/27
f 31/118/29 95/117/28 30/116/28
f 32/119/30 96/120/29 31/118/29
f 97/121/30 96/120/29 32/119/30
f 98/122/31 97/121/30 33/123/31
f 98/122/31 33/123/31 34/124/32
f 99/125/32 34/124/32 35/126/33
f 99/125/32 35/126/33 100/127/33
f 100/127/33 36/128/34 101/129/34
f 36/128/34 37/130/35 101/129/34
f 37/130/35 38/131/36 102/132/35
f 38/131/36 103/133/36 102/132/35
f 39/134/37 104/135/37 103/133/36
f 40/136/38 104/135/37 39/134/37
f 41/137/39 105/138/38 40/136/38
f 106/139/39 105/138/38 41/137/39
f 107/140/40 106/139/39 42/141/40
f 107/140/40 42/141/40 43/142/41
f 108/143/41 43/142/41 44/144/42
f 109/145/42 44/144/42 45/146/43
f 109/145/42 45/146/43 110/147/43
f 110/147/43 46/148/44 111/149/44
f 46/148/44 47/150/45 111/149/44
f 47/150/45 50/151/46 112/152/45
f 50/151/46 115/153/46 112/152/45
f 48/154/47 113/155/47 115/153/46
f 49/156/48 113/155/47 48/154/47
f 51/157/49 114/158/48 49/156/48
f 116/159/49 114/158/48 51/157/49
f 117/160/50 116/159/49 52/161/50
f 117/160/50 52/161/50 53/162/51
f 118/163/51 53/162/51 54/164/52
f 118/163/51 54/164/52 119/165/52
f 119/165/52 55/166/53 120/167/53
f 123/168/54 58/169/54 59/170/55
f 130/171/56 66/172/57 131/173/57
f 131/173/57 66/172/57 67/174/58
f 136/175/59 10/4/1 75/176/1
f 71/177/59 10/4/1 136/175/59
f 71/177/59 136/175/59 135/178/60
f 71/177/59 135/178/60 70/179/60
f 135/178/60 134/180/61 70/179/60
f 134/180/61 69/181/61 70/179/60
f 133/182/62 69/181/61 134/180/61
f 68/183/62 69/181/61 133/182/62
f 133/182/62 132/184/58 68/183/62
f 132/184/58 67/174/58 68/183/62
f 131/173/57 67/174/58 132/184/58
f 65/185/56 66/172/57 130/171/56
f 65/185/56 130/171/56 129/186/63
f 65/185/56 129/186/63 64/187/63
f 129/186/63 128/188/64 64/187/63
f 128/188/64 63/189/64 64/187/63
f 127/190/65 63/189/64 128/188/64
f 62/191/65 63/189/64 127/190/65
f 62/191/65 127/190/65 126/192/66
f 62/191/65 126/192/66 61/193/66
f 126/192/66 124/194/55 61/193/66
f 124/194/55 59/170/55 61/193/66
f 123/168/54 59/170/55 124/194/55
f 125/195/67 58/169/54 123/168/54
f 60/196/67 58/169/54 125/195/67
f 60/196/67 125/195/67 122/197/68
f 60/196/67 122/197/68 57/198/68
f 122/197/68 121/199/69 57/198/68
f 121/199/69 56/200/69 57/198/68
f 120/167/53 56/200/69 121/199/69
f 55/166/53 56/200/69 120/167/53
f 55/166/53 119/165/52 54/164/52
f 53/162/51 118/163/51 117/160/50
f 51/157/49 52/161/50 116/159/49
f 113/155/47 49/156/48 114/158/48
f 115/153/46 50/151/46 48/154/47
f 112/152/45 111/149/44 47/150/45
f 46/148/44 110/147/43 45/146/43
f 44/144/42 109/145/42 108/143/41
f 43/142/41 108/143/41 107/140/40
f 41/137/39 42/141/40 106/139/39
f 104/135/37 40/136/38 105/138/38
f 103/133/36 38/131/36 39/134/37
f 102/132/35 101/129/34 37/130/35
f 36/128/34 100/127/33 35/126/33
f 34/124/32 99/125/32 98/122/31
f 32/119/30 33/123/31 97/121/30
f 95/117/28 31/118/29 96/120/29
f 94/115/27 29/113/27 30/116/28
f 92/114/26 91/111/25 27/112/26
f 26/110/25 93/109/24 28/108/24
f 25/106/23 90/107/23 89/104/22
f 23/101/21 24/105/22 88/103/21
f 86/99/19 22/100/20 87/102/20
f 85/97/18 20/95/18 21/98/19
f 75/176/1 10/4/1 7/74/7
f 83/93/16 19/94/17 84/96/17
f 82/91/15 17/90/15 18/92/16
f 81/89/14 80/86/13 16/88/14
f 15/87/13 79/85/12 14/83/12
f 78/84/11 77/81/10 13/82/11
f 74/78/8 73/76/7 9/75/8
f 11/77/9 12/80/10 76/79/9
f 7/74/7 73/76/7 75/176/1
